<?xml version="1.0" encoding="utf-8"?>
<!-- Generator: Adobe Illustrator 24.2.1, SVG Export Plug-In . SVG Version: 6.00 Build 0)  -->
<svg version="1.1" id="graphic_element" xmlns="http://www.w3.org/2000/svg" xmlns:xlink="http://www.w3.org/1999/xlink" x="0px"
	 y="0px" viewBox="0 0 763.11 728.25" style="enable-background:new 0 0 763.11 728.25;" xml:space="preserve">
<style type="text/css">
	.st0{opacity:0.08;}
	.st1{fill:url(#SVGID_1_);}
	.st2{fill:url(#SVGID_2_);}
	.st3{fill:url(#SVGID_3_);}
	.st4{fill:url(#SVGID_4_);}
	.st5{fill:url(#SVGID_5_);}
	.st6{fill:url(#SVGID_6_);}
	.st7{fill:url(#SVGID_7_);}
	.st8{fill:url(#SVGID_8_);}
	.st9{fill:#FFFFFF;}
</style>
<g>
	<g class="st0">
		<g>
			<linearGradient id="SVGID_1_" gradientUnits="userSpaceOnUse" x1="418.0553" y1="285.8951" x2="710.7491" y2="285.8951">
				<stop  offset="0" style="stop-color:#FFFFFF"/>
				<stop  offset="1" style="stop-color:#000000"/>
			</linearGradient>
			<path class="st1" d="M542.07,466.62c0.17-1.82,0.24-3.69,0.22-5.52c-0.39-25.67,9.63-52.1,28.17-70.23
				c8.99-8.86,17.94-17.69,26.67-26.81c17.73-18.04,42.27-27.15,67.5-24.65c1.39,0.14,2.79,0.21,4.19,0.24
				c23.96,0.55,46.89-17.78,41.02-43.32c-5.79-25.17-13.22-54.15-56.56-53.45c-1.39,0.02-2.71-0.53-4.03-0.7
				c-26.54-3.43-51.17-17.1-69.77-36.1c-9.5-9.91-18.84-19.97-28.05-30.15c-17.33-19.56-30.88-43.74-35.41-69.65
				c-0.27-1.55-0.62-3.13-1.06-4.73c-3.67-13.46-12.09-25.48-21.91-35.21c-9.2-9.12-20.82-17.4-33.59-20.25
				c-25.6-5.71-42.13,17.51-41.37,40.67c0.96,29.54,26.7,54.33,55.73,58.02c0.34,0.04,0.69,0.08,1.03,0.12
				c24.65,2.72,46.68,16.25,63.42,34.11c13.13,14.31,25.89,28.92,39.4,42.89c16.67,17.45,30.86,39.23,33.69,63.71
				c0.01,0.1,0.02,0.21,0.04,0.31c0.01,0.1,0.03,0.21,0.04,0.31c2.83,22.71-4.89,44.21-20.44,61.11
				c-12.19,12.92-24.11,26.05-36.84,38.43c-17.98,17.62-42.77,26.93-67.55,27.87c-0.38,0.01-0.77,0.03-1.16,0.05
				c-31.82,1.58-60.72,26.57-61.21,59.49c-0.46,31.04,25.81,55.49,56.66,53.21C511.59,524.14,539.21,497.32,542.07,466.62z"/>
			<linearGradient id="SVGID_2_" gradientUnits="userSpaceOnUse" x1="229.0636" y1="549.7873" x2="710.7495" y2="549.7873">
				<stop  offset="0" style="stop-color:#FFFFFF"/>
				<stop  offset="1" style="stop-color:#000000"/>
			</linearGradient>
			<path class="st2" d="M289.43,526.33c1.92,0.18,3.9,0.26,5.83,0.24c26.86-0.29,55.63,9.31,74.56,29.07
				c8.86,9.18,17.62,18.46,26.49,27.63c17.06,18.07,25.7,42.34,22.25,67.12c-0.19,1.35-0.32,2.71-0.4,4.07
				c-0.9,16.33,7.75,34.19,24.08,39.47c18.49,5.98,44.64-3.65,58.38-15.87c8-7.11,11.32-17.16,14.21-27.5
				c2.64-9.46,1.07-18.55,3.97-28.14c6.27-20.75,18.08-40.05,32.7-55.99c9.31-10.15,18.73-20.19,28.28-30.11
				c18.38-18.72,42.86-32.33,68.91-36.36c1.57-0.24,3.15-0.77,4.82-0.99c35.05-4.57,50.61-29.53,56.34-54.83
				c2.37-10.49,0.09-21.61-7.63-29.38c-8.64-8.69-21.2-11.51-32.95-10.85c-28.58,1.6-53.93,25.53-58.08,54.07
				c-0.05,0.33-0.09,0.66-0.13,0.98c-3.03,24.14-17.1,45.74-33.77,62.85c-13.66,13.83-26.54,28.35-39.76,42.59
				c-16.64,17.55-38.33,31.14-62.75,33.89c-0.1,0.01-0.21,0.02-0.31,0.04c-0.1,0.01-0.21,0.02-0.31,0.04
				c-22.84,2.59-44.53-5.11-61.04-21.33c-12.56-12.7-24.78-25.74-37.43-38.35c-17.59-17.39-27.84-41.42-28.47-65.92
				c-0.01-0.36-0.02-0.73-0.03-1.1c-1.28-32.9-30.7-57.67-62.7-58.38c-30-0.67-57.58,21.2-55.31,52.79
				C231.41,496.85,259.07,523.5,289.43,526.33z"/>
			<linearGradient id="SVGID_3_" gradientUnits="userSpaceOnUse" x1="114.1916" y1="143.8277" x2="203.9762" y2="143.8277">
				<stop  offset="0" style="stop-color:#FFFFFF"/>
				<stop  offset="1" style="stop-color:#000000"/>
			</linearGradient>
			<path class="st3" d="M199.87,123.07c-10.37,26.7-34.74,51.11-61.47,61.42c-5.09,1.97-18.04,7.28-22.9,1.64
				c-4.5-5.22,3.83-14.85,6.74-18.67c8.57-11.26,18.92-21.47,28.98-31.52c10.08-10.07,20.29-20.44,31.56-29.02
				c3.86-2.94,13.44-11.16,18.68-6.55C207.05,105.29,201.87,117.93,199.87,123.07z"/>
			<linearGradient id="SVGID_4_" gradientUnits="userSpaceOnUse" x1="567.2903" y1="143.724" x2="657.0723" y2="143.724">
				<stop  offset="0" style="stop-color:#FFFFFF"/>
				<stop  offset="1" style="stop-color:#000000"/>
			</linearGradient>
			<path class="st4" d="M649.04,167.47c2.82,3.7,11.24,13.43,6.74,18.59c-4.88,5.61-17.74,0.24-22.9-1.77
				c-26.75-10.44-51.04-34.97-61.47-61.7c-1.99-5.09-7.21-17.64-1.6-22.4c5.25-4.45,14.92,3.88,18.68,6.74
				c11.27,8.58,21.49,18.93,31.56,28.99C630.12,145.98,640.45,156.2,649.04,167.47z"/>
			<linearGradient id="SVGID_5_" gradientUnits="userSpaceOnUse" x1="114.2734" y1="597.0402" x2="204.0293" y2="597.0402">
				<stop  offset="0" style="stop-color:#FFFFFF"/>
				<stop  offset="1" style="stop-color:#000000"/>
			</linearGradient>
			<path class="st5" d="M199.97,618.14c1.97,5.02,7.13,17.5,1.53,22.26c-5.28,4.49-14.86-3.74-18.72-6.68
				c-11.27-8.57-21.47-18.94-31.53-29c-10.07-10.07-20.43-20.28-29.01-31.55c-2.83-3.72-11.23-13.43-6.59-18.48
				c5.01-5.46,17.96,0.11,23.03,2.14C165.12,567.43,189.54,591.58,199.97,618.14z"/>
			<linearGradient id="SVGID_6_" gradientUnits="userSpaceOnUse" x1="567.2407" y1="597.136" x2="656.9903" y2="597.136">
				<stop  offset="0" style="stop-color:#FFFFFF"/>
				<stop  offset="1" style="stop-color:#000000"/>
			</linearGradient>
			<path class="st6" d="M649.04,573.18c-8.59,11.28-18.93,21.51-29.01,31.58c-10.06,10.06-20.27,20.39-31.53,28.97
				c-3.76,2.86-13.43,11.2-18.71,6.86c-5.62-4.61-0.42-17,1.54-21.97c10.48-26.59,34.83-50.88,61.29-61.59
				c5.13-2.08,17.99-7.69,23.02-2.26C660.27,559.77,651.79,569.57,649.04,573.18z"/>
			<linearGradient id="SVGID_7_" gradientUnits="userSpaceOnUse" x1="60.6846" y1="456.9474" x2="353.239" y2="456.9474">
				<stop  offset="0" style="stop-color:#FFFFFF"/>
				<stop  offset="1" style="stop-color:#000000"/>
			</linearGradient>
			<path class="st7" d="M297.72,598.12c-0.38-0.05-0.76-0.1-1.13-0.14c-26.23-2.94-49.88-17.7-67.73-36.62
				c-10.58-11.43-20.99-23.02-31.95-34.09c-18.04-18.44-33.35-41.47-36.62-67.58c-0.01-0.11-0.03-0.22-0.04-0.32
				c-0.05-0.36-0.1-0.72-0.15-1.07c-3.44-24.32,4.68-47.55,22.44-64.76c8.88-8.37,17.91-16.58,26.34-25.4
				c19.34-20.31,46.76-30.51,74.39-30.33c0.46,0,0.92,0.01,1.38,0c33.36-0.31,62-27.37,62.64-61.01
				c0.6-31.84-24.5-60.44-57.41-58.18c-31.9,2.19-59.18,31.3-61.41,62.83c-0.03,0.43-0.06,0.87-0.08,1.3
				c-1.25,26.65-11.46,54.42-30.48,73.56c-8.86,8.85-17.78,17.61-26.97,26.11c-18.49,16.65-42.74,24.19-67.45,21.85
				c-0.33-0.03-0.67-0.06-1-0.09c-11.82-0.8-24.47,2.04-33.22,10.73c-7.87,7.82-9.9,18.71-7.81,29.41
				c7.04,36.17,24.18,50.09,56.94,54.88c0.65,0.09,1.27,0.3,1.9,0.43c27.11,5.6,52.14,19.75,71.56,39.4
				c8.88,9.15,17.66,18.39,26.34,27.73c17.91,19.59,32.24,43.94,37.83,70.05c0.19,0.88,0.41,1.78,0.65,2.68
				c6.56,24.36,30.15,49.59,55.15,55.08c25.2,5.53,42.17-16.26,41.39-39.62C352.25,625.89,325.96,601.88,297.72,598.12z"/>
			<linearGradient id="SVGID_8_" gradientUnits="userSpaceOnUse" x1="60.5452" y1="192.4861" x2="542.991" y2="192.4861">
				<stop  offset="0" style="stop-color:#FFFFFF"/>
				<stop  offset="1" style="stop-color:#000000"/>
			</linearGradient>
			<path class="st8" d="M482.41,219.74c-1.94-0.16-3.94-0.22-5.89-0.17c-27.72,0.8-56.11-10.1-75.06-30.62
				c-8.8-9.47-17.43-19.09-26.2-28.59c-17.09-18.91-25.71-43.46-22.39-68.89c0.18-1.38,0.33-2.78,0.38-4.16
				c1.02-23.59-15.71-46.95-41.59-41.17c-12.99,2.9-29.92,7.84-39.14,17.2c-9.76,9.91-12.83,25.74-16.32,39.32
				c-0.34,1.33-0.64,2.66-0.86,3.95c-4.57,25.98-18.36,50.67-35.85,70.19c-9.22,10.08-18.56,20.04-28.07,29.85
				c-18.57,18.79-42.81,32.18-69.17,35.55c-1.58,0.2-3.15,0.85-4.83,0.86c-33.38,0.2-50.53,28.22-55.98,53.45
				c-5.59,25.83,16.67,43.13,40.43,43.21c29.11,0.1,53.89-24.18,57.92-52.75c0.05-0.34,0.09-0.68,0.13-1.01
				c3.08-24.66,17.01-46.5,33.9-64.17c13.5-13.95,26.36-28.46,39.42-42.81c16.52-17.78,38.49-31.84,63.06-34.46
				c0.1-0.01,0.21-0.02,0.31-0.04c0.1-0.01,0.21-0.03,0.31-0.04c23.13-2.68,45.1,5.37,61.59,22.07
				c12.69,13.26,24.82,26.98,37.15,40.57c17.53,19.34,27.89,44.52,28.56,70.49c0.01,0.38,0.02,0.77,0.03,1.16
				c1.28,33.37,29.66,59.97,62.9,59.96c31.27-0.01,57.84-24.61,55.73-56.64C540.82,250.77,513.79,222.36,482.41,219.74z"/>
		</g>
	</g>
	<g>
		<g>
			<path class="st9" d="M533.88,453.89c0.17-1.82,0.24-3.69,0.22-5.51c-0.39-25.67,9.63-52.1,28.17-70.23
				c8.99-8.86,17.94-17.69,26.67-26.81c17.73-18.04,42.27-27.15,67.5-24.65c1.39,0.14,2.79,0.21,4.19,0.24
				c23.96,0.55,46.89-17.78,41.02-43.32c-5.79-25.17-13.22-54.15-56.56-53.45c-1.39,0.02-2.71-0.53-4.03-0.7
				c-26.54-3.43-51.17-17.1-69.77-36.1c-9.5-9.91-18.84-19.97-28.05-30.15c-17.33-19.56-30.88-43.74-35.4-69.65
				c-0.27-1.55-0.62-3.13-1.06-4.73c-3.67-13.46-12.09-25.48-21.91-35.21c-9.2-9.12-20.82-17.4-33.59-20.25
				c-25.6-5.71-42.13,17.51-41.37,40.67c0.96,29.54,26.7,54.33,55.73,58.02c0.34,0.04,0.69,0.08,1.03,0.12
				c24.65,2.72,46.68,16.25,63.42,34.11c13.13,14.31,25.89,28.92,39.4,42.89c16.67,17.45,30.86,39.23,33.69,63.71
				c0.01,0.1,0.02,0.21,0.04,0.31c0.01,0.1,0.03,0.21,0.04,0.31c2.83,22.71-4.89,44.21-20.44,61.11
				c-12.19,12.92-24.1,26.05-36.84,38.43c-17.98,17.62-42.77,26.93-67.55,27.87c-0.38,0.01-0.77,0.03-1.16,0.05
				c-31.82,1.58-60.72,26.57-61.21,59.49c-0.46,31.04,25.81,55.49,56.66,53.21C503.41,511.41,531.02,484.59,533.88,453.89z"/>
			<path class="st9" d="M281.24,513.6c1.92,0.18,3.9,0.26,5.83,0.24c26.86-0.29,55.63,9.31,74.56,29.07
				c8.86,9.18,17.62,18.46,26.49,27.63c17.06,18.07,25.7,42.34,22.25,67.12c-0.19,1.35-0.32,2.71-0.4,4.07
				c-0.9,16.33,7.75,34.19,24.08,39.47c18.49,5.98,44.64-3.65,58.38-15.87c8-7.11,11.32-17.16,14.21-27.5
				c2.64-9.46,1.07-18.55,3.97-28.14c6.27-20.75,18.08-40.05,32.7-55.99c9.31-10.15,18.73-20.19,28.28-30.11
				c18.38-18.72,42.86-32.33,68.91-36.36c1.57-0.24,3.15-0.77,4.82-0.99c35.05-4.57,50.61-29.53,56.34-54.83
				c2.37-10.49,0.09-21.61-7.63-29.38c-8.64-8.69-21.2-11.51-32.95-10.85c-28.58,1.6-53.93,25.53-58.08,54.07
				c-0.05,0.33-0.09,0.66-0.13,0.98c-3.03,24.14-17.1,45.74-33.77,62.85c-13.66,13.83-26.54,28.35-39.76,42.59
				c-16.64,17.55-38.33,31.14-62.75,33.89c-0.1,0.01-0.21,0.02-0.31,0.04c-0.1,0.01-0.21,0.02-0.31,0.04
				c-22.84,2.59-44.53-5.11-61.04-21.33c-12.56-12.7-24.78-25.74-37.43-38.35c-17.59-17.39-27.84-41.42-28.47-65.92
				c-0.01-0.36-0.02-0.73-0.03-1.1c-1.28-32.9-30.7-57.67-62.7-58.38c-30-0.67-57.58,21.2-55.31,52.79
				C223.22,484.12,250.88,510.77,281.24,513.6z"/>
			<path class="st9" d="M191.68,110.34c-10.37,26.7-34.74,51.11-61.47,61.42c-5.09,1.97-18.04,7.28-22.9,1.64
				c-4.5-5.22,3.83-14.85,6.74-18.67c8.57-11.26,18.92-21.47,28.98-31.52c10.08-10.07,20.29-20.44,31.56-29.02
				c3.86-2.94,13.44-11.16,18.68-6.55C198.86,92.56,193.68,105.2,191.68,110.34z"/>
			<path class="st9" d="M640.85,154.74c2.82,3.7,11.24,13.43,6.74,18.59c-4.88,5.61-17.74,0.24-22.9-1.77
				c-26.75-10.44-51.04-34.97-61.47-61.71c-1.99-5.09-7.21-17.64-1.6-22.4c5.25-4.45,14.92,3.88,18.68,6.74
				c11.27,8.58,21.49,18.93,31.56,28.99C621.94,133.25,632.27,143.47,640.85,154.74z"/>
			<path class="st9" d="M191.78,605.41c1.97,5.02,7.13,17.5,1.53,22.26c-5.28,4.49-14.86-3.74-18.72-6.68
				c-11.27-8.57-21.47-18.94-31.53-29c-10.07-10.07-20.43-20.28-29.01-31.55c-2.83-3.72-11.23-13.43-6.59-18.48
				c5.01-5.46,17.96,0.11,23.03,2.14C156.93,554.69,181.35,578.85,191.78,605.41z"/>
			<path class="st9" d="M640.85,560.45c-8.59,11.28-18.93,21.51-29.01,31.58c-10.06,10.06-20.27,20.39-31.53,28.97
				c-3.76,2.86-13.43,11.2-18.71,6.86c-5.62-4.61-0.42-17,1.54-21.97c10.48-26.59,34.83-50.88,61.29-61.59
				c5.13-2.08,17.99-7.69,23.02-2.26C652.08,547.04,643.6,556.84,640.85,560.45z"/>
			<path class="st9" d="M289.54,585.39c-0.38-0.05-0.76-0.1-1.13-0.14c-26.23-2.94-49.88-17.7-67.73-36.62
				c-10.58-11.43-20.99-23.02-31.95-34.09c-18.04-18.44-33.35-41.47-36.62-67.58c-0.01-0.11-0.03-0.21-0.04-0.32
				c-0.05-0.36-0.1-0.72-0.15-1.07c-3.44-24.32,4.68-47.55,22.44-64.76c8.88-8.37,17.91-16.58,26.34-25.4
				c19.34-20.31,46.76-30.51,74.39-30.33c0.46,0,0.92,0.01,1.38,0c33.36-0.31,62-27.37,62.64-61.01
				c0.6-31.84-24.5-60.44-57.41-58.18c-31.9,2.19-59.18,31.3-61.41,62.83c-0.03,0.43-0.06,0.87-0.08,1.3
				c-1.25,26.65-11.46,54.42-30.48,73.56c-8.86,8.85-17.78,17.61-26.97,26.11c-18.49,16.65-42.74,24.19-67.45,21.85
				c-0.33-0.03-0.67-0.06-1-0.09c-11.82-0.8-24.47,2.04-33.22,10.73c-7.87,7.82-9.9,18.71-7.81,29.41
				c7.04,36.17,24.18,50.09,56.94,54.88c0.65,0.09,1.27,0.3,1.9,0.43c27.11,5.6,52.14,19.75,71.56,39.4
				c8.88,9.15,17.66,18.39,26.34,27.73c17.91,19.59,32.24,43.94,37.83,70.05c0.19,0.88,0.41,1.78,0.65,2.68
				c6.56,24.36,30.15,49.59,55.15,55.08c25.2,5.53,42.17-16.26,41.39-39.62C344.06,613.16,317.77,589.15,289.54,585.39z"/>
			<path class="st9" d="M474.22,207.01c-1.94-0.16-3.94-0.22-5.89-0.17c-27.72,0.8-56.11-10.1-75.06-30.62
				c-8.8-9.47-17.43-19.09-26.21-28.59c-17.09-18.91-25.71-43.46-22.39-68.89c0.18-1.38,0.33-2.78,0.38-4.16
				c1.02-23.59-15.71-46.95-41.59-41.17c-12.99,2.9-29.92,7.84-39.14,17.2c-9.76,9.91-12.83,25.74-16.32,39.32
				c-0.34,1.33-0.64,2.66-0.86,3.95c-4.57,25.98-18.36,50.67-35.85,70.19c-9.22,10.08-18.56,20.04-28.07,29.85
				c-18.57,18.79-42.81,32.18-69.17,35.55c-1.58,0.2-3.15,0.85-4.83,0.86c-33.38,0.2-50.53,28.22-55.98,53.45
				c-5.59,25.83,16.67,43.13,40.43,43.21c29.11,0.1,53.89-24.18,57.92-52.75c0.05-0.34,0.09-0.68,0.13-1.01
				c3.08-24.66,17.01-46.5,33.9-64.17c13.5-13.95,26.36-28.46,39.42-42.81c16.52-17.78,38.49-31.84,63.06-34.46
				c0.1-0.01,0.21-0.02,0.31-0.04c0.1-0.01,0.21-0.03,0.31-0.04c23.13-2.68,45.1,5.37,61.59,22.07
				c12.69,13.26,24.82,26.98,37.15,40.57c17.53,19.34,27.89,44.52,28.56,70.49c0.01,0.38,0.02,0.77,0.03,1.16
				c1.28,33.37,29.66,59.97,62.9,59.96c31.27-0.01,57.84-24.61,55.73-56.64C532.63,238.04,505.61,209.63,474.22,207.01z"/>
		</g>
	</g>
</g>
</svg>
