<?xml version="1.0" encoding="utf-8"?>
<!-- Generator: Adobe Illustrator 24.2.1, SVG Export Plug-In . SVG Version: 6.00 Build 0)  -->
<svg version="1.1" id="Layer_1" xmlns="http://www.w3.org/2000/svg" xmlns:xlink="http://www.w3.org/1999/xlink" x="0px" y="0px"
	 viewBox="0 0 427.68 332.64" style="enable-background:new 0 0 427.68 332.64;" xml:space="preserve">
<style type="text/css">
	.st0{fill:#3D8E85;}
</style>
<g>
	<path class="st0" d="M186.64,169.33c4.23,8.4,11.36,14.45,17.47,21.28c33.24,37.14,66.65,74.11,99.96,111.18
		c3.23,3.59,7.08,5.37,11.86,5.36c24.61-0.01,49.22,0.01,73.82-0.01c5.97,0,10.84-2.21,13.28-7.92c2.37-5.55,0.63-10.39-3.29-14.75
		c-34.12-37.85-68.2-75.74-102.29-113.62c-4.05-4.5-4.05-4.52-0.03-8.98c34-37.79,68.01-75.58,102.01-113.37
		c7.26-8.07,5.67-18.22-3.42-21.86c-2.23-0.89-4.58-1.12-6.96-1.12c-24.11,0.01-48.22,0.04-72.32-0.03
		c-5.36-0.02-9.51,1.9-13.13,5.92c-37.29,41.55-74.67,83.03-112.05,124.5c-2.19,2.43-3.95,5.04-4.91,8.18
		C186.64,165.83,186.64,167.58,186.64,169.33z"/>
	<path class="st0" d="M23.56,169.33c4.23,8.4,11.36,14.45,17.47,21.28c33.24,37.14,66.65,74.11,99.96,111.18
		c3.23,3.59,7.08,5.37,11.86,5.36c24.61-0.01,49.22,0.01,73.82-0.01c5.97,0,10.84-2.21,13.28-7.92c2.37-5.55,0.63-10.39-3.29-14.75
		c-34.12-37.85-68.2-75.74-102.29-113.62c-4.05-4.5-4.05-4.52-0.03-8.98c34-37.79,68.01-75.58,102.01-113.37
		c7.26-8.07,5.67-18.22-3.42-21.86c-2.23-0.89-4.58-1.12-6.96-1.12c-24.11,0.01-48.22,0.04-72.32-0.03
		c-5.36-0.02-9.51,1.9-13.13,5.92c-37.29,41.55-74.67,83.03-112.05,124.5c-2.19,2.43-3.95,5.04-4.91,8.18
		C23.56,165.83,23.56,167.58,23.56,169.33z"/>
</g>
</svg>
