<?xml version="1.0" encoding="utf-8"?>
<!-- Generator: Adobe Illustrator 24.2.1, SVG Export Plug-In . SVG Version: 6.00 Build 0)  -->
<svg version="1.1" id="Layer_1" xmlns="http://www.w3.org/2000/svg" xmlns:xlink="http://www.w3.org/1999/xlink" x="0px" y="0px"
	 viewBox="0 0 482 482" style="enable-background:new 0 0 482 482;" xml:space="preserve">
<style type="text/css">
	.st0{fill:#FFFFFF;}
</style>
<g>
	<path class="st0" d="M440.28,358.29v67.41c0,5.4-4.38,9.79-9.79,9.79H51.5c-5.4,0-9.79-4.38-9.79-9.79v-67.41
		c0-5.4-4.38-9.79-9.79-9.79h-2.45c-5.4,0-9.79,4.38-9.79,9.79v89.43c0,5.4,4.38,9.79,9.79,9.79h423.03c5.4,0,9.79-4.38,9.79-9.79
		v-89.43c0-5.4-4.38-9.79-9.79-9.79h-2.45C444.66,348.5,440.28,352.88,440.28,358.29z"/>
	<g>
		<path class="st0" d="M241,395.44L241,395.44c9.67,0,17.51-7.84,17.51-17.51V42.01c0-9.67-7.84-17.51-17.51-17.51h0
			c-9.67,0-17.51,7.84-17.51,17.51v335.92C223.49,387.6,231.33,395.44,241,395.44z"/>
		<path class="st0" d="M229.27,390.46L229.27,390.46c6.84,6.84,17.93,6.84,24.77,0l106.95-106.95c6.84-6.84,6.84-17.93,0-24.77h0
			c-6.84-6.84-17.93-6.84-24.77,0L229.27,365.69C222.43,372.53,222.43,383.62,229.27,390.46z"/>
		<path class="st0" d="M252.73,390.46L252.73,390.46c6.84-6.84,6.84-17.93,0-24.77L145.78,258.74c-6.84-6.84-17.93-6.84-24.77,0h0
			c-6.84,6.84-6.84,17.93,0,24.77l106.95,106.95C234.8,397.29,245.89,397.29,252.73,390.46z"/>
	</g>
</g>
</svg>
